<?xml version="1.0" encoding="UTF-8"?>
<svg xmlns="http://www.w3.org/2000/svg" version="1.1" xmlns:xlink="http://www.w3.org/1999/xlink" viewBox="0 0 6549.65 1579.11">
  <!-- Generator: Adobe Illustrator 30.4.0, SVG Export Plug-In . SVG Version: 2.1.4 Build 226)  -->
  <defs>
    <style>
      .st0, .st1, .st2, .st3, .st4, .st5, .st6, .st7 {
        fill-rule: evenodd;
      }

      .st0, .st8 {
        fill: #d0d5d7;
      }

      .st9 {
        fill: url(#linear-gradient2);
      }

      .st10 {
        fill: #babfc2;
      }

      .st11, .st1 {
        fill: #acaeb0;
      }

      .st12 {
        fill: #939596;
      }

      .st13, .st5 {
        fill: #5d97b5;
      }

      .st2 {
        fill: #0a51a3;
      }

      .st2, .st3 {
        mix-blend-mode: multiply;
      }

      .st14 {
        fill: #fff;
      }

      .st15 {
        fill: url(#linear-gradient1);
      }

      .st16 {
        fill: #70959a;
      }

      .st17 {
        fill: url(#linear-gradient8);
      }

      .st3 {
        fill: #1d1d1d;
      }

      .st18 {
        fill: none;
      }

      .st4, .st19 {
        fill: #636265;
      }

      .st20 {
        fill: #969a9d;
      }

      .st21 {
        isolation: isolate;
      }

      .st22 {
        fill: #95b7bb;
      }

      .st23 {
        fill: #8f9293;
      }

      .st24 {
        fill: #454848;
      }

      .st25 {
        fill: #3b4046;
      }

      .st26 {
        fill: url(#linear-gradient7);
      }

      .st27 {
        fill: url(#linear-gradient4);
      }

      .st28 {
        fill: url(#linear-gradient5);
      }

      .st29 {
        fill: url(#linear-gradient3);
      }

      .st6, .st30 {
        fill: #1c5882;
      }

      .st31 {
        fill: #2f7ba8;
      }

      .st32 {
        fill: #7699a0;
      }

      .st33 {
        fill: #7ebcce;
      }

      .st34 {
        fill: #3d3f43;
      }

      .st35 {
        fill: #898b8e;
      }

      .st36 {
        fill: #7eb5c5;
      }

      .st37 {
        fill: #cccfd4;
      }

      .st38 {
        fill: url(#linear-gradient6);
      }

      .st39 {
        fill: #5c5f60;
      }

      .st7 {
        fill: url(#linear-gradient);
      }

      .st40 {
        fill: #41454c;
      }

      .st41 {
        fill: #edeaeb;
      }

      .st42 {
        fill: #9c9da0;
      }

      .st43 {
        fill: #afd3da;
      }
    </style>
    <linearGradient id="linear-gradient" x1="-2113.1" y1="118.37" x2="-2113.1" y2="1240.32" gradientTransform="translate(915.42) scale(-1 1)" gradientUnits="userSpaceOnUse">
      <stop offset="0" stop-color="#272727"/>
      <stop offset="1" stop-color="#cbcbca"/>
    </linearGradient>
    <linearGradient id="linear-gradient1" x1="5015.38" y1="859.25" x2="5161.66" y2="859.25" gradientTransform="translate(-4695.4592)" gradientUnits="userSpaceOnUse">
      <stop offset="0" stop-color="#cbcbca"/>
      <stop offset="0" stop-color="#cbcbca"/>
      <stop offset=".05" stop-color="#cbcbca"/>
      <stop offset=".06" stop-color="#bfbfbe"/>
      <stop offset=".11" stop-color="#8a8c8b"/>
      <stop offset=".15" stop-color="#646766"/>
      <stop offset=".19" stop-color="#4d5050"/>
      <stop offset=".21" stop-color="#454848"/>
      <stop offset="1" stop-color="#454848"/>
    </linearGradient>
    <linearGradient id="linear-gradient2" x1="5088.43" y1="937.98" x2="5088.43" y2="761.36" gradientTransform="translate(-4695.4592)" gradientUnits="userSpaceOnUse">
      <stop offset="0" stop-color="#cbcbca"/>
      <stop offset=".08" stop-color="#bfc0bf"/>
      <stop offset=".21" stop-color="#a2a3a2"/>
      <stop offset=".39" stop-color="#727474"/>
      <stop offset=".54" stop-color="#454848"/>
    </linearGradient>
    <linearGradient id="linear-gradient3" x1="5524.31" y1="765.17" x2="5524.31" y2="969.72" gradientTransform="translate(-4695.4592)" gradientUnits="userSpaceOnUse">
      <stop offset="0" stop-color="#1c5882"/>
      <stop offset="1" stop-color="#454848"/>
    </linearGradient>
    <linearGradient id="linear-gradient4" x1="5527.19" y1="759.08" x2="5527.19" y2="957.08" gradientTransform="translate(-4695.4592)" gradientUnits="userSpaceOnUse">
      <stop offset=".46" stop-color="#454848"/>
      <stop offset=".71" stop-color="#737577"/>
      <stop offset=".89" stop-color="#919294"/>
      <stop offset="1" stop-color="#9c9da0"/>
    </linearGradient>
    <linearGradient id="linear-gradient5" x1="5116.72" y1="880.08" x2="5035.64" y2="789.23" gradientTransform="translate(-4695.4592)" gradientUnits="userSpaceOnUse">
      <stop offset="0" stop-color="#1c5882"/>
      <stop offset="1" stop-color="#9c9da0"/>
    </linearGradient>
    <linearGradient id="linear-gradient6" x1="6145.59" y1="845.49" x2="6145.59" y2="944.19" gradientTransform="translate(-4695.4592)" gradientUnits="userSpaceOnUse">
      <stop offset=".15" stop-color="#1c5882"/>
      <stop offset=".3" stop-color="#426c8a"/>
      <stop offset=".48" stop-color="#688194"/>
      <stop offset=".65" stop-color="#84909a"/>
      <stop offset=".8" stop-color="#95999e"/>
      <stop offset=".91" stop-color="#9c9da0"/>
    </linearGradient>
    <linearGradient id="linear-gradient7" x1="5769.36" y1="816.78" x2="5890.96" y2="816.78" gradientTransform="translate(-4695.4592)" gradientUnits="userSpaceOnUse">
      <stop offset=".33" stop-color="#1c5882"/>
      <stop offset=".48" stop-color="#5c7a91"/>
      <stop offset=".61" stop-color="#9c9da0"/>
    </linearGradient>
    <linearGradient id="linear-gradient8" x1="5237.6" y1="749.6" x2="5292.66" y2="959.63" xlink:href="#linear-gradient5"/>
  </defs>
  <g class="st21">
    <g id="Layer_1">
      <g>
        <path class="st14" d="M6495.42,724.52c31.84,213.03-24.19,344.1-196,391.99-196,70.84-391.99,141.94-587.99,212.78-107.38,32.83-222.16,52.83-346.57,56.53-1734.1,63.44-3468.19,126.88-5202.04,190.32-73.07-6.42-115.52-58.5-115.28-174.52-5.18-414.7-10.12-829.4-15.06-1244.11,5.68-67.64,51.84-94.79,123.18-96.52,2030.56-36.78,4030.26-30.61,6079.09,47.89,102.44,4.44,176.5,35.79,202.66,113.55,19.25,167.36,38.51,334.72,58.01,502.09h0Z"/>
        <path class="st1" d="M4332,771.78L6244.11,109.63c97.45,5.97,167.97,37.5,193.3,112.8,3.36,29.16,6.75,58.32,10.11,87.48l-1582.9,556.46c-247.84,87.1-767.57,187.2-767.57,187.2l-2701.72,271.58,2209.24-346.63s513.55-131.57,727.44-206.76Z"/>
        <path class="st7" d="M155.66,60.99c1991.95-36.08,3860.83-30.4,5868.9,43.92l-2129.39,735.47c-306.67,101.46-628.34,140.25-945.76,192.3-656.31,107.64-2450.32,377.64-2894.22,444.3-5.1-21.31-7.71-46.34-7.65-75.38-5.18-414.7-10.12-829.41-15.06-1244.11,5.68-67.64,51.84-94.79,123.18-96.52Z"/>
        <path class="st4" d="M3617.23,1011.27c48.78-11.96,450.65-111.17,651.35-181.73L6311.21,119.04c62.4,14.92,107.13,46.72,126.2,103.4,3.36,29.16,6.75,58.32,10.11,87.48l-1582.9,556.46c-247.84,87.1-504.51,165.6-767.57,187.2l-1965.61,197.59,1475.47-237.82c3.64-.59,6.74-1.19,10.32-2.07Z"/>
        <path class="st5" d="M4842.33,945.13l1614.29-556.46c9.99,86.7,19.99,173.39,30.05,260.09l-1111.73,390.96c-247.84,87.1-504.51,165.6-767.57,187.21-1292.59,65.05-2585.61,121.72-3878.2,186.1l3351.41-277.91c226.9-19.41,547.85-114.8,761.74-190Z"/>
        <path class="st6" d="M4778.91,1002.91l1681.31-583.06c8.8,76.31,17.59,152.62,26.45,228.93l-1111.73,390.96c-247.84,87.1-504.51,165.6-767.57,187.21l-3163.55,151.71,2666.97-209.04c226.68-19.63,454.24-91.51,668.12-166.7Z"/>
        <path class="st3" d="M6498.41,754.59v.49c7.9,167.85-53.57,273.01-203.65,314.73-196,71.09-391.99,141.93-587.99,213.03-107.38,32.58-222.41,52.83-346.57,56.53-1723.51,63.13-3558.59,126.02-5283.31,189.15-11.61-17.17-19.57-39.79-24.3-67.26,76.08-2.5,3186.5-104.8,4538.97-172.83,297.45-24.19,704.26-144.8,1008.13-251.69l895.46-314.72c.1.83.19,1.67.29,2.5,1.47,9.86,2.56,19.36,3.65,28.87-.19.23-.69.52-.67.71v.49Z"/>
        <path class="st2" d="M4591.55,1288.42c297.45-24.19,704.26-144.81,1008.13-251.69l895.46-314.71c.1.83.19,1.67.29,2.5,31.84,213.03-24.19,344.1-196,391.99-196,70.84-391.99,141.94-587.99,212.78-107.38,32.83-222.16,52.83-346.57,56.53-1734.1,63.44-3468.19,126.88-5202.04,190.32-58.92-5.18-97.47-40.74-110.24-114.89,76.08-2.5,3186.49-104.8,4538.97-172.83Z"/>
        <g>
          <path class="st41" d="M1863.1,473.25c0-38.09,20.9-59.67,48.43-59.67s48.56,21.58,48.56,59.67-20.9,59.67-48.56,59.67c-27.53,0-48.43-21.54-48.43-59.67ZM1938.37,473.25c0-27.99-10.93-40.93-26.84-40.93s-26.7,12.94-26.7,40.93,10.93,40.97,26.7,40.97,26.84-12.94,26.84-40.97Z"/>
          <path class="st41" d="M2074.18,495.29c0,23.05-18.7,37.63-42.43,37.63-31.64,0-50.21-20.39-50.21-57.66,0-39.78,23.18-61.69,56.84-61.69,11.61,0,22.73,2.52,30.5,7.45l-7.96,16.28c-6.31-4.16-13.9-5.67-22.04-5.67-21.86,0-35.62,13.63-35.62,39.97v.18c6.95-8.14,18.06-12.12,31-12.12,22.86,0,39.92,13.9,39.92,35.62ZM2053.28,496.29c0-12.12-9.1-19.71-23.18-19.71s-23.55,8.46-23.55,19.89,8.64,19.53,24.05,19.53c13.4,0,22.68-7.59,22.68-19.71Z"/>
          <path class="st41" d="M2248.17,504.94h-20.53v26.34h-20.9v-26.34h-63.65v-14.95l57.2-74.76h23.05l-53.91,71.47h38v-23.37h20.21v23.37h20.53v18.25Z"/>
          <path class="st41" d="M2344.2,415.22v14.45l-45.09,101.61h-23.05l43.62-97.81h-45.59v19.75h-20.07v-38h90.17Z"/>
          <path class="st41" d="M2510.92,497.94c0,21.58-18.75,34.98-47.6,34.98-28.81,0-47.24-13.4-47.24-34.98,0-12.76,6.63-22.18,18.57-27.67-9.28-5.12-14.4-13.44-14.4-24.37,0-19.89,17.42-32.33,43.08-32.33s43.44,12.44,43.44,32.33c0,10.93-5.3,19.25-14.72,24.37,12.07,5.49,18.89,14.91,18.89,27.67ZM2489.2,497.3c0-11.43-9.97-18.57-25.88-18.57s-25.52,7.13-25.52,18.57,9.6,18.7,25.52,18.7,25.88-6.95,25.88-18.7ZM2441.46,446.91c0,9.92,8.28,16.23,21.86,16.23s22.22-6.31,22.22-16.23c0-10.47-8.96-16.42-22.22-16.42s-21.86,5.94-21.86,16.42Z"/>
          <path class="st41" d="M2571.83,415.22v116.06h-21.58v-97.95h-24.51v-18.11h46.09Z"/>
          <path class="st41" d="M2694.2,415.22v116.06h-21.58v-97.95h-24.51v-18.11h46.09Z"/>
          <path class="st41" d="M2818.12,497.94c0,21.58-18.7,34.98-47.56,34.98s-47.24-13.4-47.24-34.98c0-12.76,6.63-22.18,18.57-27.67-9.28-5.12-14.45-13.44-14.45-24.37,0-19.89,17.42-32.33,43.12-32.33s43.44,12.44,43.44,32.33c0,10.93-5.3,19.25-14.77,24.37,12.12,5.49,18.89,14.91,18.89,27.67ZM2796.4,497.3c0-11.43-9.92-18.57-25.84-18.57s-25.52,7.13-25.52,18.57,9.6,18.7,25.52,18.7,25.84-6.95,25.84-18.7ZM2748.66,446.91c0,9.92,8.32,16.23,21.9,16.23s22.22-6.31,22.22-16.23c0-10.47-8.96-16.42-22.22-16.42s-21.9,5.94-21.9,16.42Z"/>
          <path class="st41" d="M2931.52,415.22v116.06h-21.58v-97.95h-24.51v-18.11h46.09Z"/>
          <path class="st41" d="M3048.81,415.22v14.45l-45.09,101.61h-23.05l43.58-97.81h-45.59s0,19.75,0,19.75h-20.03v-38h90.17Z"/>
        </g>
        <g>
          <g>
            <path class="st41" d="M2132.62,699.92c0,17.7-12.8,28.4-34.02,28.4h-20.12v24.69h-11.66v-81.53h31.78c21.22,0,34.02,10.7,34.02,28.44ZM2120.96,699.92c0-11.66-7.77-18.29-22.68-18.29h-19.8v36.54h19.8c14.91,0,22.68-6.63,22.68-18.25Z"/>
            <path class="st41" d="M2219.18,711.76h11.2v31.83c-8.14,6.86-19.43,10.33-30.87,10.33-25.06,0-43.44-17.56-43.44-41.66s18.38-41.7,43.67-41.7c12.94,0,23.87,4.3,31.32,12.58l-7.22,7.22c-6.72-6.54-14.45-9.47-23.64-9.47-18.84,0-32.47,13.17-32.47,31.37s13.63,31.32,32.37,31.32c6.86,0,13.26-1.51,19.07-5.26v-26.57Z"/>
            <path class="st41" d="M2258.83,716.2h31.37v9.69h-31.37s0-9.69,0-9.69Z"/>
            <path class="st41" d="M2311.37,743.68l4.3-9.05c6.04,5.44,16.42,9.42,26.89,9.42,14.08,0,20.17-5.49,20.17-12.58,0-19.94-49.39-7.36-49.39-37.63,0-12.58,9.79-23.28,31.23-23.28,9.51,0,19.43,2.56,26.2,7.22l-3.84,9.28c-7.13-4.53-15.18-6.63-22.36-6.63-13.9,0-19.8,5.85-19.8,12.94,0,19.94,49.34,7.45,49.34,37.4,0,12.44-10.01,23.14-31.55,23.14-12.44,0-24.69-4.16-31.19-10.24Z"/>
            <path class="st41" d="M2417.91,681.63h-27.94v-10.15h67.45v10.15h-27.99v71.38h-11.52v-71.38Z"/>
            <path class="st41" d="M2512.16,724.84v28.17h-11.52v-28.4l-32.37-53.14h12.48l26.06,42.98,26.2-42.98h11.52l-32.37,53.36Z"/>
            <path class="st41" d="M2566.71,671.47h11.61v71.38h44.17v10.15h-55.79v-81.53Z"/>
            <path class="st41" d="M2706.82,742.85v10.15h-59.17v-81.53h57.52v10.15h-45.86v25.01h40.88v9.92h-40.88v26.29h47.51Z"/>
            <path class="st41" d="M2731.79,745.69c0-4.66,3.61-7.96,7.91-7.96s7.68,3.29,7.68,7.96-3.48,8-7.68,8-7.91-3.38-7.91-8Z"/>
            <path class="st41" d="M2842.58,699.92c0,17.7-12.8,28.4-34.02,28.4h-20.12v24.69h-11.66v-81.53h31.78c21.22,0,34.02,10.7,34.02,28.44ZM2830.92,699.92c0-11.66-7.77-18.29-22.68-18.29h-19.8v36.54h19.8c14.91,0,22.68-6.63,22.68-18.25Z"/>
            <path class="st41" d="M2926.04,753.01l-17.61-25.06c-1.65.14-3.38.27-5.12.27h-20.17v24.78h-11.61v-81.53h31.78c21.22,0,34.02,10.7,34.02,28.44,0,12.58-6.54,21.63-17.97,25.7l19.34,27.39h-12.67ZM2925.67,699.92c0-11.66-7.82-18.29-22.73-18.29h-19.8v36.67h19.8c14.91,0,22.73-6.77,22.73-18.38Z"/>
            <path class="st41" d="M2961.38,712.26c0-23.92,18.38-41.7,43.4-41.7s43.21,17.7,43.21,41.7-18.38,41.66-43.21,41.66-43.4-17.79-43.4-41.66ZM3036.38,712.26c0-18.06-13.54-31.37-31.6-31.37s-31.78,13.31-31.78,31.37c0,18.02,13.54,31.32,31.78,31.32s31.6-13.31,31.6-31.32Z"/>
          </g>
          <path class="st33" d="M1891.41,685.78c1.59,0,3.14.25,4.6.68,5.48-6.14,11.56-11.73,18.14-16.69-.27-1.17-.43-2.37-.43-3.62,0-1.73.29-3.38.81-4.93-7.39-5.29-15.4-9.73-23.94-13.17-8,4.95-14.98,11.39-20.53,18.94,4.13,7.32,9.02,14.14,14.62,20.35,2.03-.99,4.3-1.56,6.73-1.56h0ZM1875.85,701.35c0-2.19.45-4.27,1.27-6.15-5.01-5.49-9.52-11.41-13.49-17.71-4.99,9.88-7.8,21.03-7.8,32.84,0,13.68,3.76,26.48,10.3,37.43,2.33-13.16,6.77-25.6,12.89-37-1.98-2.62-3.17-5.87-3.17-9.4h0ZM1929.27,650.58c4.12,0,7.84,1.61,10.61,4.2,8.13-3.48,16.69-6.17,25.58-7.88-10.74-6.2-23.19-9.75-36.46-9.75-9.07,0-17.73,1.66-25.75,4.67,6.37,3.14,12.42,6.8,18.11,10.94,2.33-1.38,5.03-2.17,7.91-2.17h0ZM1952.56,723.91c.96-2.01,2.33-3.8,4.05-5.22-4.6-14.13-11.88-27.07-21.27-38.2-1.85.79-3.91,1.23-6.07,1.23-3.37,0-6.48-1.09-9.04-2.91-5.64,4.28-10.86,9.1-15.61,14.34,1.47,2.39,2.34,5.2,2.34,8.2,0,1.62-.25,3.19-.71,4.66,13.65,9.13,29.37,15.38,46.31,17.9h0ZM1972.76,744.92c.22,2.94.32,5.92.32,8.92,0,5.28-.32,10.48-.96,15.6,12.41-9.07,21.85-21.94,26.62-36.9-5.65,1.37-11.44,2.34-17.36,2.91-1.38,4.26-4.55,7.69-8.62,9.46h0ZM1948.91,734.38c-18.05-3-34.8-9.89-49.38-19.76-2.36,1.45-5.15,2.3-8.12,2.3-1.09,0-2.15-.11-3.19-.33-6.99,13.23-11.44,27.98-12.71,43.62,6.95,7.47,15.47,13.49,25,17.54,11.87-18.24,28.42-33.32,48.4-43.38h0ZM1978.12,656.1c-11.73,1.13-22.92,4.07-33.35,8.49.06.52.07,1.04.07,1.57,0,2.46-.57,4.78-1.59,6.84,10.4,12.22,18.52,26.48,23.62,42.08,6.31.12,11.73,3.99,14.05,9.5,7.05-.71,13.91-2.05,20.52-4.01.46-3.34.73-6.76.73-10.23,0-21.51-9.28-40.85-24.06-54.23h0ZM1956.75,742.69c-18.65,8.73-34.23,22.18-45.53,38.63,5.69,1.42,11.64,2.19,17.78,2.19,11.03,0,21.5-2.46,30.88-6.83,1.51-7.38,2.3-15.01,2.3-22.82,0-2.82-.13-5.62-.34-8.39-1.86-.61-3.59-1.54-5.09-2.77h0ZM1956.75,742.69"/>
        </g>
        <g>
          <g>
            <rect class="st31" x="773.91" y="584.24" width="31.34" height="31.34"/>
            <rect class="st23" x="815.32" y="584.24" width="31.34" height="31.34"/>
            <rect class="st43" x="773.91" y="625.43" width="31.34" height="31.34"/>
            <rect class="st36" x="815.32" y="625.43" width="31.34" height="31.34"/>
          </g>
          <path class="st15" d="M340.16,889.77l57.43-.29c10.11-.05,19.53-3.82,27.89-9,22.19-13.74,29.64-43.45,21.74-67.95-3.67-11.4-10.96-20.31-21-26.65-8.35-4.45-17.14-7.71-26.97-7.73l-63.54-.15v178.46s-15.8.05-15.8.05l.05-115.78.12-78.8,82.29.07c15.62,1.64,29.63,6.76,41.31,16.99,24.12,21.66,28.54,58.8,14.85,87.44-6.24,13.06-15.89,23.29-28.41,30.3-10.35,5.18-21.24,8.84-33.02,8.89l-41.27.17-.13,50.77h-15.63s.09-66.81.09-66.81Z"/>
          <path class="st9" d="M426.22,785.88c10.05,6.35,17.33,15.26,21,26.65,1.68,5.2,2.57,10.63,2.87,16.09,5.31.2,10.63.34,15.94.38-.75-18.78-8.01-37.13-22.35-50-11.68-10.24-25.69-15.36-41.31-16.99l-82.29-.07-.11,78.8-.05,115.78,15.81-.05v-178.46s63.53.15,63.53.15c9.82.02,18.61,3.28,26.97,7.73Z"/>
          <polygon class="st40" points="1388.67 941.01 1388.65 778.01 1504.83 778.01 1504.83 761.94 1372.57 761.96 1372.54 956.58 1505.08 956.57 1507.5 956.57 1507.5 955.52 1507.55 940.95 1388.67 941.01"/>
          <path class="st29" d="M822.1,959.46c-33.4-2.75-59.68-25.76-62.7-59.05l15.34-2.46c2.08,19.98,14.02,35.54,32.75,42.06,19.97,6.95,46.58,5.27,62.49-9.34,14.93-13.71,17.36-40.59,3.92-56.5-9.86-11.67-24.62-15.52-38.74-19.36l-19.12-5.2c-5.77-1.57-10.98-4.51-15.59-8.11-8.24-6.42-11.76-15.64-11.52-25.91.31-13.21,6.7-24.84,18.86-30.75,12.2-5.93,26.53-6.62,39.52-2.56,16.37,5.11,24.76,18.22,27.28,35.19l-14.99,2.81c-1.21-6.29-2.79-12.24-7.27-16.94-8.67-9.11-24.81-10.3-36.38-5.32-6.54,2.82-10.65,8.23-11.51,15.22-.7,5.64.47,11.57,4.92,15.4,4.09,3.52,9.06,5.84,14.35,7.21l25,6.51c18.55,4.83,36.68,14.93,44.47,33.03,7.49,17.43,6.83,37.76-2.5,54.4-6.82,12.16-18.14,20.55-31.09,25.33-11.99,4.43-24.37,5.43-37.5,4.35Z"/>
          <path class="st27" d="M870.8,923.2c-13.98,17.6-43.06,19.73-63.42,12.01-16.26-6.16-26.82-20.49-28.24-38.01l15.22-2.66c1,12.85,8.62,23.32,20.85,27.26,13.86,4.46,34.92,3.72,43.72-8.31,5.12-7,5.92-16.7,1.49-24.25-5.49-9.36-24.23-14.15-35.73-16.76-9.28-2.11-18.07-4.65-26.59-8.82-16.7-8.17-26.94-23.13-28.58-41.64l.03-11.74c1.85-19.25,12.95-35.82,30.64-44.08,17.22-8.05,37.25-8.86,55.16-2.45,21.79,7.8,35.8,26.56,38.58,49.83l-15.1,3.03-2.78-11.56c-4.37-12.83-13.84-22.49-26.85-26.9-12.98-4.4-27.32-3.97-39.99.85-15.75,5.98-24.53,20.06-24.72,36.59-.28,25.12,17.18,35.01,39.1,40.85l22.22,5.92c6.05,1.61,11.47,4.34,16.72,7.58,10.34,6.4,15.89,16.96,15.78,29.17-.08,8.72-2.02,17.15-7.51,24.06Z"/>
          <path class="st28" d="M442.61,813.26c8.28,24.82-.22,54.84-25.09,66.49-7.34,2.95-14.7,5.27-22.84,5.3l-54.54.17v-102.75s58.4.06,58.4.06c8.09.82,15.36,2.23,22.53,5.8,10.18,5.35,17.83,13.83,21.54,24.94ZM428.22,818.81c-2.57-7.91-8.08-13.75-15.6-17.13-4.11-1.38-8.39-3.08-12.94-3.09l-43.84-.13-.05,70.3,42.29-.23c6.59-.04,12.43-2.78,17.95-5.74,13.77-9.34,17.11-28.8,12.18-43.97Z"/>
          <polygon class="st34" points="1354.81 940.96 1354.88 956.59 1231.41 956.57 1231.5 761.98 1247.15 761.97 1247.16 940.95 1354.81 940.96"/>
          <polygon class="st38" points="1408.05 921.22 1507.64 921.24 1507.49 936.67 1392.62 936.66 1392.63 860.42 1489.79 860.43 1489.88 876.33 1408.05 876.34 1408.05 921.22"/>
          <polygon class="st42" points="1354.81 921.23 1354.9 936.67 1251.42 936.66 1251.31 761.98 1266.81 761.97 1266.65 921.22 1354.81 921.23"/>
          <polygon class="st20" points="1408.05 840.47 1489.83 840.49 1489.84 856.01 1392.6 856.01 1392.64 782.49 1504.8 782.48 1504.83 798.46 1408.05 798.45 1408.05 840.47"/>
          <polygon class="st30" points="957.88 956.56 957.89 798.46 907.02 798.46 906.99 782.49 973.77 782.51 973.74 956.56 957.88 956.56"/>
          <polygon class="st25" points="993.65 798.45 993.54 956.48 978.02 956.52 978.02 865.37 978.1 782.49 1044.57 782.49 1044.63 798.46 993.65 798.45"/>
          <polygon class="st40" points="1131.45 956.53 1115.88 956.58 1115.86 881.68 1067.1 792.73 1050.54 761.97 1068.85 761.98 1093.87 807.95 1131.44 876.6 1131.45 956.53"/>
          <polygon class="st30" points="1151.43 956.57 1135.87 956.56 1135.88 876.47 1200.49 762.07 1218.82 762.06 1151.48 881.5 1151.43 956.57"/>
          <polygon class="st26" points="1144.22 821.83 1177.72 761.99 1195.5 761.98 1161.21 822.6 1133.66 871.64 1073.9 762.11 1091.81 761.92 1101.98 781.08 1133.86 840.38 1144.22 821.83"/>
          <polygon class="st30" points="646.53 956.59 646.53 867.16 570.21 867.12 570.22 851.54 662.09 851.54 662.11 956.59 646.53 956.59"/>
          <rect class="st30" x="907" y="761.94" width="137.64" height="16.13"/>
          <path class="st18" d="M626.5,920.03v6.38c.05-.04.1-.08.15-.13l-.15-6.26Z"/>
          <path class="st17" d="M596.68,942.2c-39.98,9.83-81.18-8.57-96.49-47.27-8.67-21.92-8.7-47.1.1-68.87,13.24-32.77,45.41-52.42,80.52-50.31,17.41,1.05,33.6,7.49,47.18,18.61,4.46,3.65,8.17,7.91,12.17,11.89l10.65-11.59c-10.8-12.51-23.87-21.85-38.8-28.05-52.92-20.93-112.98,7.27-129.12,61.83-6.93,23.42-6.34,48.17,2.3,71.03,15.17,40.15,54.6,63.91,97.18,61.07,15.99-1.07,30.66-6.03,44.13-14.76v-19.35c-8.65,7.6-18.45,12.99-29.82,15.78Z"/>
          <path class="st24" d="M570.22,871.53v15.83s56.35.04,56.35.04l.06,6.68c-10.73,22.2-33.15,32.66-57.35,30.24-18.53-1.85-35.53-11.58-45.42-27.48-14.56-23.4-13.44-53.06,2.23-75.63,19.03-27.41,59.72-32.7,86.31-13.02,5.22,3.86,9.21,8.19,13.88,13.14l10.89-11.86-11.07-11.08c-14.29-12.17-32.11-18.01-50.92-17.83-20.92.19-40.63,7.99-55.01,23.14-11.34,11.95-18.34,26.54-20.78,42.86-2.42,16.24-.8,32.1,5.23,47.35,7.19,18.2,22.47,33.35,40.79,40.51,18.74,7.33,39.15,7.72,57.97.67,8.96-3.36,16.43-8.25,23.12-15.06l.15,6.26c-.05.04-.1.08-.15.13v19.35s.04-.03.07-.04l.11,10.87,15.62-.03-.05-85.02-72.02-.02Z"/>
          <g>
            <path class="st8" d="M320.09,1046.38v-55.09h22.14c11.07,0,17.26,7.6,17.26,16.6s-6.36,16.6-17.26,16.6h-15.28v21.89h-6.86ZM341.4,997.4h-14.45v20.98s14.45,0,14.45,0c6.52,0,10.98-4.3,10.98-10.49s-4.46-10.49-10.98-10.49Z"/>
            <path class="st8" d="M388.4,1046.38v-55.09h36.1v6.11h-29.24v17.76h28.66v6.11h-28.66v19h29.24v6.11h-36.1Z"/>
            <path class="st8" d="M455.23,1046.38v-55.09h6.86v55.09h-6.86Z"/>
            <path class="st8" d="M533.79,1046.38l-32.13-44.44v44.44h-6.86v-55.09h7.02l31.72,43.53v-43.53h6.86v55.09h-6.61Z"/>
            <path class="st8" d="M586.74,1046.38v-48.98h-17.43v-6.11h41.79v6.11h-17.51v48.98h-6.86Z"/>
            <path class="st8" d="M671.91,1046.38l-14.04-21.89h-10.98v21.89h-6.86v-55.09h22.14c10.08,0,17.26,6.44,17.26,16.6s-6.77,15.37-14.29,16.03l14.87,22.46h-8.09ZM661.34,997.4h-14.45v21.06h14.45c6.52,0,10.98-4.38,10.98-10.57s-4.46-10.49-10.98-10.49Z"/>
            <path class="st8" d="M710.08,1046.38v-55.09h36.1v6.11h-29.24v17.76h28.66v6.11h-28.66v19h29.24v6.11h-36.1Z"/>
            <path class="st8" d="M818.05,1046.38v-55.09h36.1v6.11h-29.24v17.76h28.66v6.11h-28.66v19h29.24v6.11h-36.1Z"/>
            <path class="st8" d="M923.86,1046.38l-32.13-44.44v44.44h-6.86v-55.09h7.02l31.72,43.53v-43.53h6.86v55.09h-6.61Z"/>
            <path class="st8" d="M1004.33,1046.38v-55.09h24.53c9.58,0,15.44,5.78,15.44,14.04,0,6.94-4.63,11.56-9.66,12.64,5.86.91,10.74,6.94,10.74,13.54,0,8.84-5.86,14.87-15.94,14.87h-25.11ZM1011.18,1015.16h16.52c6.19,0,9.5-3.8,9.5-8.84s-3.3-8.92-9.5-8.92h-16.52v17.76ZM1011.18,1040.26h16.85c6.44,0,10.24-3.63,10.24-9.5,0-5.04-3.47-9.5-10.24-9.5h-16.85v19Z"/>
            <path class="st8" d="M1115.67,1046.38l-4.87-12.22h-27.92l-4.87,12.22h-7.6l22.76-55.09h6.95l23.16,55.09h-7.6ZM1096.84,999.56l-11.97,28.48h23.87l-11.9-28.48Z"/>
            <polygon class="st8" points="1102.6 988.41 1096.85 980.51 1090.91 988.41 1086.05 988.41 1094.46 977.01 1098.89 977.01 1107.2 988.41 1102.6 988.41"/>
            <path class="st8" d="M1158.39,1046.38v-48.98h-17.43v-6.11h41.79v6.11h-17.51v48.98h-6.86Z"/>
            <path class="st8" d="M1211.67,1046.38v-55.09h6.86v55.09h-6.86Z"/>
            <path class="st8" d="M1298.32,1046.38v-45.84s-18.75,45.84-18.75,45.84h-2.81l-18.67-45.84v45.84s-6.86,0-6.86,0v-55.09h9.83l17.1,41.96,17.18-41.96h9.83v55.09h-6.86Z"/>
            <path class="st8" d="M1337.9,1046.38v-55.09h36.09v6.11h-29.24v17.76h28.66v6.11h-28.66v19h29.24v6.11h-36.09Z"/>
            <path class="st8" d="M1443.71,1046.38l-32.13-44.44v44.44h-6.86v-55.09h7.02l31.72,43.53v-43.53h6.86v55.09h-6.61Z"/>
            <path class="st8" d="M1496.67,1046.38v-48.98h-17.43v-6.11h41.79v6.11h-17.51v48.98h-6.86Z"/>
          </g>
          <g>
            <polygon class="st30" points="660.52 472.98 709.35 426.63 768.5 370.69 707.04 309.01 695.4 297.12 585.93 397.44 660.52 472.98"/>
            <polygon class="st19" points="966.83 374.35 1044.78 394.87 1089.05 284.63 969.85 252.96 966.83 374.35"/>
            <polygon class="st33" points="788.18 379.09 865.55 340.74 828.33 241.71 708.02 298.94 788.18 379.09"/>
            <polygon class="st23" points="1096.28 469.62 1136.07 421.93 1175.67 374.7 1135.38 342.05 1088.84 304.17 1040.59 424.83 1096.28 469.62"/>
            <path class="st32" d="M881.22,360.51l78.63-10.23,1.31-54.21,1.65-58.88-116.57,15.24c-2.04.27-3.63.28-5.19.97l40.17,107.12Z"/>
            <polygon class="st10" points="1115.77 547.65 1183.85 500.46 1216.74 477.42 1185.59 420.01 1170.19 391.78 1085.69 493.6 1115.77 547.65"/>
            <polygon class="st12" points="964.17 487.93 1003.69 498.28 1041.12 404.61 966.64 384.93 964.17 487.93"/>
            <polygon class="st43" points="862.93 453.58 900.68 434.39 868.9 349.55 795.27 386.15 862.93 453.58"/>
            <polygon class="st22" points="902.18 416.45 918.57 461.34 957.34 456.26 959.72 360.28 884.83 369.95 902.18 416.45"/>
            <polygon class="st11" points="995.44 537.59 1022.25 559.42 1089.67 478.11 1036.63 435.25 1027.56 457.68 995.44 537.59"/>
            <polygon class="st8" points="1022.54 612.81 1089.6 566.07 1106.97 553.76 1078.28 502.73 1008.34 587.02 1022.54 612.81"/>
            <polygon class="st13" points="881.63 521.56 905.28 541.76 923.7 525.18 845.2 447.6 820.1 469.28 881.63 521.56"/>
            <polygon class="st36" points="910.45 545.53 931.16 561.75 945.07 556.98 942.24 547.48 916.95 479.14 903.95 443.51 870 460.94 923.03 514.05 933.08 524.62 916.55 539.47 910.45 545.53"/>
            <path class="st16" d="M952.69,560.67c-5.67,2.08-10.74,3.69-16.92,6.79l18.77,15.09,2.69-116.15-35.13,4.6,30.59,89.67Z"/>
            <path class="st39" d="M961.85,588.72c-.04-.33,3.96,4.01,3.96,4.01l33.93-84.82-35.74-9.23-2.14,90.04Z"/>
            <polygon class="st35" points="982.92 607.14 1015.28 567.84 991.22 548.34 971.05 598.08 982.92 607.14"/>
            <polygon class="st37" points="1004.25 625.36 1014.52 617.15 1000.93 596.12 988.48 611.08 1004.25 625.36"/>
          </g>
          <path class="st0" d="M593.44,646.08c10.08-8.57,21.09-16.26,31.65-24.24,16.41-12.38,32.31-25.52,48.46-38.24l138.23-108.16s44.73,38.69,59.21,51.13c38.2,32.79,167.24,141.1,167.24,141.1,0,0,188.01,18.03,193.73,19.68-.06.29-208.39-.18-208.39-.18-50.78-45.08-101.97-89.55-154.09-133.1-14.03-11.72-27.87-23.73-42.21-35.07-3.63-2.87-7.13-5.89-10.7-8.84-1.42-1.17-3.32-3.37-5.12-3.7-13.44,11.1-111.59,73.17-145.02,95.19-16.24,10.69-32.7,21.09-49.08,31.57-6.08,3.89-12.11,7.9-18.32,11.58-.8.47-4.93,4.05-5.68,3.64-.83-.45-.29-1.84.09-2.37Z"/>
          <polygon class="st31" points="836.3 437.33 774.81 377.35 707.67 440.79 667.01 479.4 720.53 531.63 836.3 437.33"/>
        </g>
        <g>
          <path class="st41" d="M5517.45,1245.37l6.34-16.92c8.31,5.66,16.54,7.4,24.67,4.55,10.6-3.71,13.85-11.97,9.45-24.61l-18.65-53.2-36.76,12.86-5.64-16.03,55.94-19.61,23.92,68.24c8.49,24.23.61,40.39-22.16,48.36-13.01,4.52-26.64,3.4-37.11-3.64Z"/>
          <path class="st41" d="M5596.08,1175.06c-10.65-30.46,5.06-61.22,37.11-72.44,32.05-11.22,63.52,2.82,74.22,33.41,10.73,30.56-5.09,61.19-37.11,72.44-32.05,11.22-63.57-3.02-74.22-33.41ZM5688.1,1142.83c-7.35-21.04-28.19-30.75-49.02-23.44-20.8,7.28-31,27.86-23.62,48.87,7.35,21.04,28.16,30.71,48.96,23.43,20.84-7.31,31.07-27.86,23.68-48.87Z"/>
          <path class="st41" d="M5715.4,1075.47l19.18-6.75,36.07,102.93-19.21,6.71-36.04-102.9Z"/>
          <path class="st41" d="M5860.14,1024.73l36.04,102.9-15.79,5.57-81.43-49.71,24.41,69.66-19.04,6.7-36.04-102.9,15.79-5.57,81.43,49.71-24.41-69.66,19.04-6.7Z"/>
          <path class="st41" d="M5920.14,1021.88l-34.22,12.01-5.72-16.2,87.75-30.76,5.68,16.23-34.29,12,30.39,86.7-19.18,6.75-30.42-86.74Z"/>
          <path class="st41" d="M6096.07,1039.61l5.64,16.03-77.56,27.19-36.07-102.93,75.46-26.45,5.67,16.06-56.28,19.7,9.4,26.77,49.88-17.53,5.51,15.72-49.88,17.53,9.91,28.36,58.31-20.45Z"/>
          <path class="st41" d="M6112.17,1001.63l-20.34-58.11,19.21-6.71,20.1,57.36c7.37,21.14,20.2,26.88,36.9,21.06,16.67-5.86,22.92-18.27,15.52-39.44l-20.1-57.36,18.9-6.58,20.35,58.04c10.51,29.99-.73,52.27-28.95,62.13-28.36,9.97-51.07-.4-61.58-30.39Z"/>
          <path class="st41" d="M6318.55,979.66l-31.69-22.75c-1.27.6-2.59,1.07-3.92,1.54l-23.31,8.17,10.51,29.99-19.24,6.74-36.04-102.9,42.56-14.91c27.18-9.55,48.86-1.57,56.83,21.2,5.46,15.59,1.51,29.85-10.63,40.22l35.65,25.44-20.7,7.26ZM6262.18,902.03l-22.43,7.88,14.37,41,22.43-7.88c16.84-5.87,22.86-16.58,18.3-29.5-4.52-12.94-15.84-17.38-32.67-11.5Z"/>
        </g>
        <g>
          <path class="st41" d="M5264.26,999.5l5.58,16.02-77.52,27.16-36.01-102.86,75.46-26.45,5.58,16.02-56.24,19.68,9.37,26.8,49.94-17.46,5.49,15.62-49.94,17.46,9.97,28.43,58.34-20.41Z"/>
          <path class="st41" d="M5352.75,870.97l36.01,102.86-15.76,5.54-81.43-49.71,24.41,69.66-19.02,6.73-36.07-102.93,15.79-5.57,81.39,49.74-24.41-69.66,19.07-6.66Z"/>
          <path class="st41" d="M5386.13,859.23l45.23-15.81c33.51-11.73,63.59.78,74.42,31.68,10.83,30.9-4.9,59.45-38.4,71.18l-45.17,15.88-36.07-102.93ZM5460.83,930.44c23.04-8.07,33.02-27.25,25.56-48.56-7.45-21.31-27.29-30.06-50.33-21.99l-25.1,8.78,24.76,70.55,25.1-8.78Z"/>
          <path class="st41" d="M5533.2,872.89l-20.35-58.04,19.18-6.75,20.07,57.33c7.47,21.18,20.28,26.99,36.92,21.09,16.7-5.82,22.98-18.2,15.55-39.41l-20.07-57.33,18.87-6.62,20.35,58.04c10.51,29.99-.79,52.2-28.95,62.13-28.38,9.87-51.07-.47-61.57-30.45Z"/>
          <path class="st41" d="M5635.9,771.74l19.18-6.75,36.07,102.93-19.24,6.68-36.01-102.86Z"/>
          <path class="st41" d="M5712.31,848.26l1.42-17.15c10.61,3.7,25.44,3.82,38.08-.64,16.16-5.63,20.91-13.74,18.2-21.4-7.71-22.15-64.11,13.91-77.5-24.31-5.77-16.56,2.57-35.37,30.89-45.32,12.37-4.36,26.51-5.69,37.59-2.94l-.87,16.95c-11.21-2.18-22.31-1.28-31.29,1.9-15.96,5.58-20.27,14.04-17.57,21.83,7.71,21.92,63.97-13.79,77.21,23.95,5.75,16.46-2.75,35.29-31.08,45.23-16.12,5.6-33.96,6.25-45.09,1.9Z"/>
          <path class="st41" d="M5895.34,778.41l5.58,16.02-77.52,27.16-36.07-102.93,75.46-26.45,5.61,15.99-56.28,19.7,9.37,26.8,49.94-17.46,5.55,15.69-49.94,17.46,9.97,28.43,58.34-20.41Z"/>
          <path class="st41" d="M5911.38,740.37l-20.35-58.04,19.22-6.78,20.07,57.33c7.43,21.21,20.28,26.99,36.92,21.09,16.7-5.82,22.98-18.2,15.51-39.38l-20.07-57.33,18.91-6.65,20.32,58.07c10.51,29.99-.79,52.2-28.95,62.13-28.33,9.94-51.07-.47-61.57-30.45Z"/>
          <path class="st41" d="M6117.79,718.43l-31.67-22.71c-1.3.57-2.62,1.04-3.94,1.51l-23.35,8.2,10.51,29.99-19.24,6.68-36.01-102.86,42.53-14.95c27.17-9.49,48.83-1.61,56.86,21.23,5.43,15.55,1.48,29.81-10.66,40.19l35.64,25.5-20.67,7.23ZM6061.36,640.73l-22.4,7.91,14.36,41.06,22.4-7.91c16.9-5.87,22.9-16.61,18.4-29.52-4.59-12.95-15.9-17.38-32.76-11.55Z"/>
        </g>
        <g>
          <path class="st41" d="M4929.62,703.99c7.89,22.6-4.02,42.5-31.23,52.02l-23.31,8.17,10.41,29.71-19.21,6.71-36.04-102.9,42.52-14.88c27.18-9.55,48.86-1.64,56.86,21.17ZM4910.24,710.78c-4.52-12.94-15.86-17.41-32.7-11.54l-22.43,7.88,14.28,40.89,22.43-7.88c16.87-5.9,22.98-16.44,18.42-29.35Z"/>
          <path class="st41" d="M5049.59,718.43l5.61,15.99-77.52,27.16-36.04-102.9,75.42-26.42,5.61,15.99-56.24,19.68,9.37,26.8,49.91-17.5,5.51,15.72-49.94,17.46,9.97,28.43,58.34-20.41Z"/>
          <path class="st41" d="M5046.26,622.03l19.18-6.75,36.04,102.9-19.18,6.75-36.04-102.9Z"/>
          <path class="st41" d="M5190.97,571.32l36.08,102.87-15.82,5.53-81.43-49.71,24.44,69.7-19.07,6.66-36.01-102.86,15.79-5.57,81.43,49.71-24.41-69.66,19.01-6.67Z"/>
          <path class="st41" d="M5251.02,568.37l-34.26,12.04-5.69-16.16,87.72-30.73,5.66,16.13-34.22,12.01,30.38,86.77-19.21,6.71-30.38-86.77Z"/>
          <path class="st41" d="M5422.68,605.64l-31.67-22.71c-1.3.57-2.66,1.07-3.98,1.54l-23.31,8.17,10.51,29.99-19.21,6.71-36.08-102.87,42.56-14.91c27.14-9.53,48.83-1.61,56.83,21.2,5.46,15.59,1.51,29.85-10.59,40.19l35.62,25.47-20.67,7.23ZM5366.25,528l-22.43,7.88,14.4,41.03,22.43-7.88c16.84-5.87,22.86-16.58,18.34-29.52-4.52-12.94-15.86-17.41-32.74-11.51Z"/>
          <path class="st41" d="M5540.53,546.39l5.61,15.99-77.52,27.16-36.04-102.9,75.42-26.42,5.61,15.99-56.24,19.68,9.37,26.8,49.94-17.46,5.46,15.65-49.88,17.53,9.97,28.43,58.31-20.45Z"/>
        </g>
      </g>
    </g>
  </g>
</svg>